<svg xmlns="http://www.w3.org/2000/svg" width="178.934" height="163.188" viewBox="0 0 178.934 163.188">
  <g id="noun_Hamburger_2623555" transform="translate(207.334 -788.41)" opacity="0.649">
    <g id="noun_Movie_2998555" transform="translate(-207.334 788.41)">
      <path id="Path_7" data-name="Path 7" d="M179.629,66.056H47.838a10.907,10.907,0,0,0-.629-3.608l129.9-24.569c3.562-.687,5.657-3.436,4.819-6.357L175.019,6.608a5.411,5.411,0,0,0-2.933-3.265,7.718,7.718,0,0,0-4.819-.687L19.133,30.662c-3.562.687-5.657,3.436-4.819,6.185L18.5,51.624C12.01,54.373,7.4,59.871,7.4,66.4c0,7.388,5.867,13.573,13.829,15.807v78.176c0,2.921,2.933,5.326,6.5,5.326H179.838c3.562,0,6.5-2.406,6.5-5.326v-89C186.124,68.462,183.191,66.056,179.629,66.056ZM100.01,76.709h16.762l-8.8,15.12H91.21Zm54.267-60.823L163.915,14l4.19,14.948L149.876,32.38Zm-31.01,5.842,16.343-3.093-4.4,16.494-16.343,3.093ZM92.257,27.57,108.6,24.477l-4.4,16.494L87.857,44.064Zm-31.01,5.842,16.343-3.093-4.4,16.494L56.848,49.906ZM46.581,36.332l-4.4,16.494-2.514.344a23.706,23.706,0,0,0-8.59-3.093L28.143,39.6ZM27.514,60.386c4.19,0,7.543,2.749,7.543,6.185s-3.352,6.185-7.543,6.185-7.543-2.749-7.543-6.185S23.324,60.386,27.514,60.386ZM44.486,91.828H34.01v-9.45a21.141,21.141,0,0,0,9.848-5.67H53.5Zm31.638,0H59.572l8.8-15.12H85.133Zm47.143,40.72-28.5,14.261c-3.562,1.718-8.171-.344-8.171-3.78V114.508c0-3.436,4.4-5.5,8.171-3.78l28.5,14.261A4.1,4.1,0,0,1,123.267,132.549Zm16.552-40.72H123.057l8.8-15.12h16.762Zm33.524,0H154.9l8.8-15.12h9.638v15.12Z" transform="translate(-7.4 -2.522)"/>
    </g>
  </g>
</svg>
